<?xml version="1.0" encoding="UTF-8" standalone="no"?>
<!DOCTYPE svg PUBLIC "-//W3C//DTD SVG 1.0//EN" "http://www.w3.org/TR/2001/REC-SVG-20010904/DTD/svg10.dtd">
<!-- Created with Inkscape (http://www.inkscape.org/) -->
<svg
   xmlns:svg="http://www.w3.org/2000/svg"
   xmlns="http://www.w3.org/2000/svg"
   version="1.0"
   width="511"
   height="600"
   id="svg7603">
  <defs
     id="defs7605" />
  <g
     transform="translate(-101.22292,-137.37229)"
     id="layer1">
    <g
       transform="matrix(0.7098649,0,0,0.7098649,82.049513,151.63601)"
       id="g8536"
       style="fill:#2b5595;fill-opacity:1">
      <g
         transform="translate(8.9183236,-246.74029)"
         id="g8335"
         style="fill:#2b5595;fill-opacity:1">
        <path
           d="M 205.56299,728.73984 C 199.59021,727.17512 190.63536,724.06925 185.66327,721.83792 C 177.62538,718.23074 176.23678,716.94851 173.13845,710.27241 C 169.46838,702.3644 162.71385,675.71216 164.04295,674.38307 C 164.47078,673.95522 167.33447,674.65547 170.40669,675.93913 C 176.93125,678.66525 203.01512,684.18406 209.37534,684.18406 L 213.75227,684.18406 L 214.66685,696.04312 C 215.44143,706.08837 217.66615,717.60779 221.06013,729.14727 C 222.0396,732.47742 219.58342,732.41285 205.56296,728.73984 L 205.56299,728.73984 z"
           id="path8221"
           style="opacity:1;fill:#2b5595;fill-opacity:1;fill-rule:nonzero;stroke:none;stroke-width:25;stroke-linecap:round;stroke-linejoin:round;marker:none;marker-start:none;marker-mid:none;marker-end:none;stroke-miterlimit:4;stroke-dasharray:none;stroke-dashoffset:0;stroke-opacity:1;visibility:visible;display:inline;overflow:visible;enable-background:accumulate" />
        <path
           d="M 241.80103,654.823 C 244.68111,641.75732 247.85028,631.2004 251.61624,622.12739 C 255.82736,611.98184 256.3638,611.34994 260.78123,611.33155 C 263.36185,611.32079 271.79622,610.00743 279.52424,608.41294 C 287.25225,606.8184 293.78697,605.72561 294.0458,605.98442 C 294.30464,606.24323 293.54689,610.73377 292.36199,615.96339 C 291.17709,621.19299 289.74565,629.34526 289.18105,634.07955 C 288.22661,642.08235 287.77531,642.87993 282.75942,645.42756 C 275.99746,648.86206 255.59143,655.24353 247.40546,656.48361 C 242.03848,657.29668 241.30377,657.07895 241.80106,654.82302 L 241.80103,654.823 z"
           id="path8223"
           style="opacity:1;fill:#2b5595;fill-opacity:1;fill-rule:nonzero;stroke:none;stroke-width:25;stroke-linecap:round;stroke-linejoin:round;marker:none;marker-start:none;marker-mid:none;marker-end:none;stroke-miterlimit:4;stroke-dasharray:none;stroke-dashoffset:0;stroke-opacity:1;visibility:visible;display:inline;overflow:visible;enable-background:accumulate" />
        <path
           d="M 194.66367,655.06633 C 189.23635,653.90003 180.20655,651.08404 174.5974,648.80852 C 164.95996,644.89883 164.42323,644.42928 164.84053,640.27384 C 166.43605,624.38533 176.7899,596.99178 180.64105,598.46962 C 191.7673,602.73912 210.47418,608.23386 216.79243,609.08822 C 221.08343,609.66848 224.9743,610.75806 225.43876,611.50956 C 225.90316,612.26103 224.99388,616.37886 223.41803,620.66022 C 220.98817,627.26171 217.55922,640.58544 214.81592,654.08472 C 214.00138,658.09295 209.71923,658.30152 194.66363,655.06628 L 194.66367,655.06633 z"
           id="path8225"
           style="opacity:1;fill:#2b5595;fill-opacity:1;fill-rule:nonzero;stroke:none;stroke-width:25;stroke-linecap:round;stroke-linejoin:round;marker:none;marker-start:none;marker-mid:none;marker-end:none;stroke-miterlimit:4;stroke-dasharray:none;stroke-dashoffset:0;stroke-opacity:1;visibility:visible;display:inline;overflow:visible;enable-background:accumulate" />
        <path
           d="M 217.90888,582.21511 C 203.60414,578.79333 194.86988,575.56964 194.86988,573.71176 C 194.86988,571.47694 214.68908,552.42604 222.80228,546.86218 L 229.05824,542.57191 L 237.7483,546.47178 C 242.52788,548.61675 250.83068,551.52371 256.19899,552.93171 L 265.95955,555.49171 L 257.79021,564.3155 C 253.29712,569.16866 247.91504,575.71715 245.83009,578.86775 C 242.22579,584.3142 241.66492,584.59002 234.43321,584.47228 C 230.24988,584.40417 222.81396,583.38845 217.90888,582.21511 z"
           id="path8227"
           style="opacity:1;fill:#2b5595;fill-opacity:1;fill-rule:nonzero;stroke:none;stroke-width:25;stroke-linecap:round;stroke-linejoin:round;marker:none;marker-start:none;marker-mid:none;marker-end:none;stroke-miterlimit:4;stroke-dasharray:none;stroke-dashoffset:0;stroke-opacity:1;visibility:visible;display:inline;overflow:visible;enable-background:accumulate" />
        <path
           d="M 129.43437,620.92704 C 116.28454,608.48051 107.16771,595.80493 107.195,590.00655 C 107.22404,583.84088 110.6836,569.40632 114.71432,558.63324 L 117.95723,549.96584 L 125.2354,558.26336 C 129.23841,562.82691 137.0123,570.06983 142.51071,574.35869 C 148.00911,578.64754 153.00334,582.56557 153.60897,583.06541 C 154.21465,583.56524 152.75003,588.63935 150.35438,594.34116 C 147.95874,600.04296 144.37136,610.34472 142.38244,617.23393 L 138.76619,629.75982 L 129.43437,620.92704 z"
           id="path8229"
           style="opacity:1;fill:#2b5595;fill-opacity:1;fill-rule:nonzero;stroke:none;stroke-width:25;stroke-linecap:round;stroke-linejoin:round;marker:none;marker-start:none;marker-mid:none;marker-end:none;stroke-miterlimit:4;stroke-dasharray:none;stroke-dashoffset:0;stroke-opacity:1;visibility:visible;display:inline;overflow:visible;enable-background:accumulate" />
        <path
           d="M 159.72957,553.62411 C 149.97838,545.41619 142.26274,537.42783 136.35888,529.42738 L 132.39262,524.0526 L 143.93662,512.20331 C 150.28583,505.68622 158.55155,498.27992 162.30492,495.74487 L 169.12917,491.13571 L 174.77916,498.54441 C 177.88661,502.61916 185.65203,510.80528 192.03562,516.73577 L 203.64214,527.51844 L 195.33183,534.13307 C 190.76118,537.77111 183.34293,545.09537 178.84685,550.4092 C 174.35078,555.72304 170.16939,560.26948 169.55491,560.51239 C 168.94039,560.75534 164.51901,557.65559 159.72956,553.62413 L 159.72957,553.62411 z"
           id="path8231"
           style="opacity:1;fill:#2b5595;fill-opacity:1;fill-rule:nonzero;stroke:none;stroke-width:25;stroke-linecap:round;stroke-linejoin:round;marker:none;marker-start:none;marker-mid:none;marker-end:none;stroke-miterlimit:4;stroke-dasharray:none;stroke-dashoffset:0;stroke-opacity:1;visibility:visible;display:inline;overflow:visible;enable-background:accumulate" />
        <path
           d="M 114.86633,488.15013 C 113.05319,482.52058 110.78367,472.52147 109.82295,465.92991 C 107.64313,450.97404 108.14657,449.87369 124.71656,433.37877 C 137.49325,420.65999 141.35994,418.60051 141.35994,424.51422 C 141.35994,428.68923 147.19911,448.64027 151.62774,459.59677 C 153.41339,464.01453 154.34193,468.06316 153.69113,468.59368 C 153.04033,469.1242 148.82903,472.32876 144.33271,475.71491 C 139.83639,479.10111 132.50162,485.58725 128.03323,490.1286 C 123.56481,494.66998 119.51602,498.38565 119.03587,498.38565 C 118.55568,498.38565 116.67943,493.77966 114.8663,488.15012 L 114.86633,488.15013 z"
           id="path8233"
           style="opacity:1;fill:#2b5595;fill-opacity:1;fill-rule:nonzero;stroke:none;stroke-width:25;stroke-linecap:round;stroke-linejoin:round;marker:none;marker-start:none;marker-mid:none;marker-end:none;stroke-miterlimit:4;stroke-dasharray:none;stroke-dashoffset:0;stroke-opacity:1;visibility:visible;display:inline;overflow:visible;enable-background:accumulate" />
        <path
           d="M 218.4015,503.92721 C 207.94316,495.59314 194.86988,481.89944 194.86988,479.27877 C 194.86988,477.27561 211.7007,472.33808 225.62554,470.25613 C 240.14455,468.0853 239.9486,468.05129 243.03776,473.28084 C 244.53972,475.82347 250.13074,482.52786 255.46223,488.17953 C 260.79377,493.83121 264.89286,498.65345 264.57138,498.89563 C 264.24989,499.13784 260.97695,500.18673 257.29814,501.22658 C 253.61934,502.2664 245.70953,505.06255 239.72078,507.44017 C 233.73204,509.81783 228.69778,511.76313 228.53353,511.76313 C 228.3693,511.76313 223.80987,508.23695 218.40153,503.92717 L 218.4015,503.92721 z"
           id="path8235"
           style="opacity:1;fill:#2b5595;fill-opacity:1;fill-rule:nonzero;stroke:none;stroke-width:25;stroke-linecap:round;stroke-linejoin:round;marker:none;marker-start:none;marker-mid:none;marker-end:none;stroke-miterlimit:4;stroke-dasharray:none;stroke-dashoffset:0;stroke-opacity:1;visibility:visible;display:inline;overflow:visible;enable-background:accumulate" />
        <path
           d="M 175.18332,446.07577 C 171.3982,436.53812 167.62694,422.38228 165.88169,411.16097 L 164.91479,404.94437 L 176.86649,401.16886 C 188.36041,397.53793 204.04727,394.37326 210.66786,394.34976 C 213.46704,394.33985 214.0217,395.61703 215.48179,405.43407 C 216.38942,411.53661 219.04677,422.48367 221.387,429.7609 L 225.64193,442.99223 L 215.08671,444.86981 C 206.14286,446.46072 190.29811,450.9815 181.313,454.50601 C 179.43263,455.2436 178.08754,453.39363 175.18335,446.07577 L 175.18332,446.07577 z"
           id="path8237"
           style="opacity:1;fill:#2b5595;fill-opacity:1;fill-rule:nonzero;stroke:none;stroke-width:25;stroke-linecap:round;stroke-linejoin:round;marker:none;marker-start:none;marker-mid:none;marker-end:none;stroke-miterlimit:4;stroke-dasharray:none;stroke-dashoffset:0;stroke-opacity:1;visibility:visible;display:inline;overflow:visible;enable-background:accumulate" />
        <path
           d="M 287.64044,447.89203 C 285.93461,447.2021 279.24587,445.84119 272.77653,444.86777 C 266.30718,443.89431 259.55753,442.82845 257.77727,442.49909 C 255.27452,442.03611 253.47021,439.12511 249.82141,429.66346 C 245.08334,417.3772 240.19391,397.56983 241.56155,396.20219 C 242.80541,394.95836 261.88503,400.1792 274.3916,405.18559 L 286.2827,409.94561 L 287.27266,418.86393 C 287.81714,423.76901 289.32211,432.33866 290.61703,437.9076 C 293.67474,451.05755 293.86758,450.41067 287.64041,447.89203 L 287.64044,447.89203 z"
           id="path8239"
           style="opacity:1;fill:#2b5595;fill-opacity:1;fill-rule:nonzero;stroke:none;stroke-width:25;stroke-linecap:round;stroke-linejoin:round;marker:none;marker-start:none;marker-mid:none;marker-end:none;stroke-miterlimit:4;stroke-dasharray:none;stroke-dashoffset:0;stroke-opacity:1;visibility:visible;display:inline;overflow:visible;enable-background:accumulate" />
        <path
           d="M 166.65048,373.61267 C 166.69938,368.46656 171.38878,351.78975 175.69696,341.44107 C 179.8483,331.46904 180.87505,330.17858 186.71202,327.5966 C 194.02806,324.36039 216.07791,318.53279 221.00678,318.53279 L 224.28192,318.53279 L 220.60033,330.05229 C 218.57545,336.38802 216.17962,347.35042 215.27622,354.41318 L 213.63371,367.25457 L 203.28325,368.27446 C 197.59046,368.83542 187.01429,370.78645 179.78063,372.6101 C 168.31328,375.50108 166.63133,375.62952 166.65049,373.61268 L 166.65048,373.61267 z"
           id="path8241"
           style="opacity:1;fill:#2b5595;fill-opacity:1;fill-rule:nonzero;stroke:none;stroke-width:25;stroke-linecap:round;stroke-linejoin:round;marker:none;marker-start:none;marker-mid:none;marker-end:none;stroke-miterlimit:4;stroke-dasharray:none;stroke-dashoffset:0;stroke-opacity:1;visibility:visible;display:inline;overflow:visible;enable-background:accumulate" />
        <path
           d="M 273.6484,376.33918 C 266.69954,374.0862 256.41929,371.40754 250.80338,370.38661 L 240.59262,368.53038 L 241.53449,359.33772 C 242.51527,349.76445 245.14323,339.7021 250.19113,326.19168 L 253.16077,318.24352 L 260.06027,319.2392 C 277.49513,321.75523 301.09046,330.9531 299.85916,334.75348 C 299.4388,336.05099 297.11348,342.80316 294.69184,349.75823 C 292.27025,356.71334 289.80592,365.74313 289.21565,369.82446 C 288.62538,373.90583 287.72399,377.96294 287.21257,378.84031 C 286.59044,379.90755 282.10091,379.07969 273.6484,376.33919 L 273.6484,376.33918 z"
           id="path8243"
           style="opacity:1;fill:#2b5595;fill-opacity:1;fill-rule:nonzero;stroke:none;stroke-width:25;stroke-linecap:round;stroke-linejoin:round;marker:none;marker-start:none;marker-mid:none;marker-end:none;stroke-miterlimit:4;stroke-dasharray:none;stroke-dashoffset:0;stroke-opacity:1;visibility:visible;display:inline;overflow:visible;enable-background:accumulate" />
        <path
           d="M 333.89871,412.22758 C 329.901,408.16885 323.46744,402.68985 319.60192,400.05204 C 311.7963,394.72554 311.97646,395.78622 315.47595,375.7587 C 317.3006,365.3165 322.66895,348.26054 324.13104,348.26054 C 325.93575,348.26054 348.79155,372.624 352.06907,378.04151 L 355.24866,383.29709 L 350.19962,395.81927 C 347.42268,402.70646 344.72239,410.87622 344.19897,413.97428 C 343.67553,417.07233 342.77929,419.60712 342.20729,419.60712 C 341.63528,419.60712 337.89642,416.28634 333.89871,412.2276 L 333.89871,412.22758 z"
           id="path8245"
           style="opacity:1;fill:#2b5595;fill-opacity:1;fill-rule:nonzero;stroke:none;stroke-width:25;stroke-linecap:round;stroke-linejoin:round;marker:none;marker-start:none;marker-mid:none;marker-end:none;stroke-miterlimit:4;stroke-dasharray:none;stroke-dashoffset:0;stroke-opacity:1;visibility:visible;display:inline;overflow:visible;enable-background:accumulate" />
        <path
           d="M 310.02406,307.64367 C 305.51958,304.61579 291.03234,299.12362 279.93193,296.23561 C 274.43224,294.80474 270.13595,293.04917 270.3847,292.33434 C 271.73269,288.46049 284.26695,275.70499 293.70907,268.59828 L 304.53031,260.45355 L 314.22495,262.0023 C 324.41657,263.63042 341.25417,268.49202 344.93197,270.8685 C 346.65493,271.98177 344.35754,275.10287 333.71248,286.1107 C 326.35018,293.72393 319.04391,302.12679 317.47636,304.78371 C 314.24308,310.26403 314.03885,310.3424 310.02403,307.64365 L 310.02406,307.64367 z"
           id="path8247"
           style="opacity:1;fill:#2b5595;fill-opacity:1;fill-rule:nonzero;stroke:none;stroke-width:25;stroke-linecap:round;stroke-linejoin:round;marker:none;marker-start:none;marker-mid:none;marker-end:none;stroke-miterlimit:4;stroke-dasharray:none;stroke-dashoffset:0;stroke-opacity:1;visibility:visible;display:inline;overflow:visible;enable-background:accumulate" />
        <path
           d="M 366.44818,352.28138 C 364.05031,349.06127 356.48178,341.16305 349.62918,334.72979 L 337.16986,323.03296 L 343.68361,314.57427 C 349.89713,306.50549 370.84108,287.31866 373.43532,287.31866 C 377.38211,287.31866 405.93687,318.34968 405.93687,322.63874 C 405.93687,323.45169 402.18223,327.01351 397.59321,330.5539 C 393.00423,334.09431 385.10019,341.74864 380.02872,347.56355 L 370.80791,358.13611 L 366.44818,352.28138 z"
           id="path8249"
           style="opacity:1;fill:#2b5595;fill-opacity:1;fill-rule:nonzero;stroke:none;stroke-width:25;stroke-linecap:round;stroke-linejoin:round;marker:none;marker-start:none;marker-mid:none;marker-end:none;stroke-miterlimit:4;stroke-dasharray:none;stroke-dashoffset:0;stroke-opacity:1;visibility:visible;display:inline;overflow:visible;enable-background:accumulate" />
        <path
           d="M 422.26944,298.30471 C 417.96339,292.28373 410.9079,284.01669 406.59055,279.93353 L 398.74081,272.50959 L 410.14238,268.91637 C 416.41324,266.94008 426.76633,264.53506 433.14923,263.57187 C 447.29194,261.4377 447.27812,261.43065 466.06888,280.33417 L 479.37968,293.72485 L 463.83929,297.7015 C 455.29208,299.88869 444.20384,303.38231 439.19875,305.4651 L 430.09865,309.25198 L 422.26944,298.30471 z"
           id="path8251"
           style="opacity:1;fill:#2b5595;fill-opacity:1;fill-rule:nonzero;stroke:none;stroke-width:25;stroke-linecap:round;stroke-linejoin:round;marker:none;marker-start:none;marker-mid:none;marker-end:none;stroke-miterlimit:4;stroke-dasharray:none;stroke-dashoffset:0;stroke-opacity:1;visibility:visible;display:inline;overflow:visible;enable-background:accumulate" />
        <path
           d="M 397.87931,414.78231 C 397.352,412.12211 394.62743,403.92574 391.82468,396.56812 L 386.72878,383.19064 L 390.62265,377.24509 C 395.08563,370.43061 416.73592,348.26054 418.92766,348.26054 C 421.33167,348.26054 429.63727,382.13558 429.70784,392.22858 C 429.71404,393.1119 426.67897,396.01783 422.9633,398.68622 C 419.24765,401.35463 412.2994,407.15609 407.52277,411.5784 L 398.83797,419.61897 L 397.87931,414.78231 z"
           id="path8253"
           style="opacity:1;fill:#2b5595;fill-opacity:1;fill-rule:nonzero;stroke:none;stroke-width:25;stroke-linecap:round;stroke-linejoin:round;marker:none;marker-start:none;marker-mid:none;marker-end:none;stroke-miterlimit:4;stroke-dasharray:none;stroke-dashoffset:0;stroke-opacity:1;visibility:visible;display:inline;overflow:visible;enable-background:accumulate" />
        <path
           d="M 454.19392,373.90072 C 452.66226,364.70491 447.5855,345.26356 445.26665,339.71376 C 444.07312,336.8572 443.09655,334.22963 443.09655,333.87476 C 443.09655,331.18786 471.63376,322.12421 484.77438,320.63751 L 493.39177,319.66259 L 497.26731,331.93101 C 501.35473,344.86992 505.03773,365.59336 503.51964,367.11145 C 503.02604,367.60508 497.08813,368.9602 490.32438,370.12281 C 483.56064,371.2854 473.29425,373.86521 467.5102,375.85566 C 461.72617,377.84612 456.57267,379.47467 456.05804,379.47467 C 455.54338,379.47467 454.70457,376.96639 454.19393,373.90072 L 454.19392,373.90072 z"
           id="path8255"
           style="opacity:1;fill:#2b5595;fill-opacity:1;fill-rule:nonzero;stroke:none;stroke-width:25;stroke-linecap:round;stroke-linejoin:round;marker:none;marker-start:none;marker-mid:none;marker-end:none;stroke-miterlimit:4;stroke-dasharray:none;stroke-dashoffset:0;stroke-opacity:1;visibility:visible;display:inline;overflow:visible;enable-background:accumulate" />
        <path
           d="M 449.68658,445.12202 C 451.77964,438.35085 454.98765,420.23661 454.98765,415.18949 C 454.98765,409.50384 455.03302,409.461 465.76396,405.00689 C 482.3029,398.14206 502.55204,393.58358 502.55204,396.72517 C 502.55204,402.30409 492.13846,433.41615 488.75816,437.93638 C 487.59972,439.48547 482.92969,440.9234 475.82518,441.91851 C 469.70929,442.7751 461.15399,444.40342 456.81337,445.53691 C 449.5742,447.42736 448.98464,447.39301 449.68663,445.12197 L 449.68658,445.12202 z"
           id="path8257"
           style="opacity:1;fill:#2b5595;fill-opacity:1;fill-rule:nonzero;stroke:none;stroke-width:25;stroke-linecap:round;stroke-linejoin:round;marker:none;marker-start:none;marker-mid:none;marker-end:none;stroke-miterlimit:4;stroke-dasharray:none;stroke-dashoffset:0;stroke-opacity:1;visibility:visible;display:inline;overflow:visible;enable-background:accumulate" />
        <path
           d="M 571.61707,375.76361 C 567.03543,373.75046 550.54939,370.13987 538.01981,368.40553 L 531.12553,367.45121 L 530.06254,357.48427 C 529.47795,352.00247 527.47303,341.49747 525.60722,334.13986 C 523.74144,326.78224 522.39711,320.55941 522.61988,320.31131 C 523.51273,319.31701 547.66818,326.09615 557.1253,329.9952 C 566.0811,333.68759 567.57496,334.90087 570.47156,340.83514 C 573.57377,347.1906 579.84418,370.42953 579.84418,375.5711 C 579.84418,378.42134 577.77581,378.46974 571.61709,375.76361 L 571.61707,375.76361 z"
           id="path8259"
           style="opacity:1;fill:#2b5595;fill-opacity:1;fill-rule:nonzero;stroke:none;stroke-width:25;stroke-linecap:round;stroke-linejoin:round;marker:none;marker-start:none;marker-mid:none;marker-end:none;stroke-miterlimit:4;stroke-dasharray:none;stroke-dashoffset:0;stroke-opacity:1;visibility:visible;display:inline;overflow:visible;enable-background:accumulate" />
        <path
           d="M 553.8324,450.78524 C 548.10981,448.48296 537.74226,445.43178 530.7934,444.00477 C 523.84454,442.57778 517.99321,441.29946 517.79046,441.16407 C 517.58776,441.02866 519.04676,436.26694 521.03282,430.58243 C 523.01887,424.89792 525.85214,414.37668 527.329,407.2019 L 530.01419,394.15683 L 537.46419,395.16451 C 548.06916,396.59888 564.51137,400.98161 572.91399,404.61376 L 580.10446,407.72197 L 579.09944,414.03616 C 577.51005,424.02227 573.87797,435.92355 569.34751,445.9905 C 567.04813,451.09995 564.95758,455.21081 564.70194,455.12575 C 564.44625,455.04068 559.55499,453.08743 553.8324,450.7852 L 553.8324,450.78524 z"
           id="path8261"
           style="opacity:1;fill:#2b5595;fill-opacity:1;fill-rule:nonzero;stroke:none;stroke-width:25;stroke-linecap:round;stroke-linejoin:round;marker:none;marker-start:none;marker-mid:none;marker-end:none;stroke-miterlimit:4;stroke-dasharray:none;stroke-dashoffset:0;stroke-opacity:1;visibility:visible;display:inline;overflow:visible;enable-background:accumulate" />
        <path
           d="M 509.24079,507.08497 C 505.97073,505.57655 497.77781,502.58909 491.0343,500.44618 L 478.77338,496.54998 L 487.41084,486.69151 C 492.16141,481.26935 497.55716,474.65919 499.40136,472.00228 C 502.00765,468.24744 503.80785,467.17868 507.48401,467.20368 C 514.39619,467.25065 537.13732,472.52311 544.50338,475.78644 L 550.85963,478.60238 L 539.64903,489.60884 C 533.48321,495.66235 525.45672,502.68801 521.8124,505.2214 L 515.18633,509.82758 L 509.24079,507.08497 z"
           id="path8263"
           style="opacity:1;fill:#2b5595;fill-opacity:1;fill-rule:nonzero;stroke:none;stroke-width:25;stroke-linecap:round;stroke-linejoin:round;marker:none;marker-start:none;marker-mid:none;marker-end:none;stroke-miterlimit:4;stroke-dasharray:none;stroke-dashoffset:0;stroke-opacity:1;visibility:visible;display:inline;overflow:visible;enable-background:accumulate" />
        <path
           d="M 617.46274,492.61882 C 613.21885,487.85008 605.07425,480.38513 599.36364,476.03004 L 588.98069,468.11176 L 591.6764,462.81087 C 595.23055,455.82201 603.62638,430.62995 603.62638,426.95449 C 603.62638,425.36595 604.44202,424.06629 605.43891,424.06629 C 607.84535,424.06629 628.81046,445.50628 633.81193,453.08201 C 637.55589,458.75287 637.68103,459.53517 636.25812,468.37056 C 634.51468,479.19623 627.76499,501.37442 626.22911,501.32385 C 625.65156,501.30482 621.7067,497.38757 617.46277,492.61882 L 617.46274,492.61882 z"
           id="path8265"
           style="opacity:1;fill:#2b5595;fill-opacity:1;fill-rule:nonzero;stroke:none;stroke-width:25;stroke-linecap:round;stroke-linejoin:round;marker:none;marker-start:none;marker-mid:none;marker-end:none;stroke-miterlimit:4;stroke-dasharray:none;stroke-dashoffset:0;stroke-opacity:1;visibility:visible;display:inline;overflow:visible;enable-background:accumulate" />
        <path
           d="M 568.78228,553.30387 C 565.63228,549.17333 557.97,541.09745 551.75497,535.35745 L 540.45492,524.92107 L 544.17089,521.9277 C 551.71784,515.84838 558.50349,509.28646 566.67439,500.16618 L 575.05724,490.80937 L 583.78587,498.07339 C 592.53417,505.35382 605.1147,518.55854 609.15761,524.70399 C 611.15997,527.74768 610.91183,528.46565 605.70481,534.69491 C 598.56532,543.236 577.96137,560.81391 575.08941,560.81391 C 574.77041,560.81391 571.93225,557.43439 568.78226,553.30387 L 568.78228,553.30387 z"
           id="path8267"
           style="opacity:1;fill:#2b5595;fill-opacity:1;fill-rule:nonzero;stroke:none;stroke-width:25;stroke-linecap:round;stroke-linejoin:round;marker:none;marker-start:none;marker-mid:none;marker-end:none;stroke-miterlimit:4;stroke-dasharray:none;stroke-dashoffset:0;stroke-opacity:1;visibility:visible;display:inline;overflow:visible;enable-background:accumulate" />
        <path
           d="M 499.66746,576.99507 C 497.09178,573.40928 491.3073,566.70331 486.81306,562.09295 L 478.64166,553.71048 L 488.80995,550.62195 C 494.40257,548.92323 502.61768,545.92724 507.06583,543.96415 L 515.15331,540.39486 L 520.37218,544.23722 C 528.72759,550.38877 536.65739,557.65008 543.78926,565.68018 C 549.83728,572.48993 550.18717,573.29044 547.71941,574.67147 C 542.96727,577.33089 524.43913,581.74054 514.22756,582.6424 L 504.35042,583.5147 L 499.66746,576.99507 z"
           id="path8269"
           style="opacity:1;fill:#2b5595;fill-opacity:1;fill-rule:nonzero;stroke:none;stroke-width:25;stroke-linecap:round;stroke-linejoin:round;marker:none;marker-start:none;marker-mid:none;marker-end:none;stroke-miterlimit:4;stroke-dasharray:none;stroke-dashoffset:0;stroke-opacity:1;visibility:visible;display:inline;overflow:visible;enable-background:accumulate" />
        <path
           d="M 600.83033,618.84753 C 599.03463,611.52533 595.57906,600.71756 593.1513,594.8302 C 590.72358,588.94289 588.91013,584.03986 589.12147,583.93467 C 593.99126,581.51062 605.3226,572.55761 614.22952,564.0965 L 625.63869,553.25841 L 628.63041,562.61012 C 631.97597,573.068 634.25991,583.49581 635.41342,593.57961 C 636.1574,600.08339 635.87202,600.69504 627.70973,610.09158 C 620.62901,618.24294 606.00067,632.1605 604.51365,632.1605 C 604.28358,632.1605 602.6261,626.16965 600.83036,618.84748 L 600.83033,618.84753 z"
           id="path8271"
           style="opacity:1;fill:#2b5595;fill-opacity:1;fill-rule:nonzero;stroke:none;stroke-width:25;stroke-linecap:round;stroke-linejoin:round;marker:none;marker-start:none;marker-mid:none;marker-end:none;stroke-miterlimit:4;stroke-dasharray:none;stroke-dashoffset:0;stroke-opacity:1;visibility:visible;display:inline;overflow:visible;enable-background:accumulate" />
        <path
           d="M 521.85739,727.69581 C 524.58033,720.52953 528.14991,704.57357 529.96438,691.4575 L 530.91161,684.61026 L 542.07475,683.66668 C 548.21441,683.14766 558.63282,681.34555 565.22674,679.66198 C 571.82068,677.97845 577.46945,676.8547 577.77962,677.16488 C 578.95944,678.34465 571.84603,703.19645 567.60393,712.71522 L 563.16904,722.66655 L 551.06884,727.00705 C 544.41364,729.39431 536.29303,731.79505 533.02298,732.34202 C 529.75293,732.88897 525.28611,733.69065 523.09671,734.1235 L 519.11596,734.91047 L 521.85739,727.69581 z"
           id="path8273"
           style="opacity:1;fill:#2b5595;fill-opacity:1;fill-rule:nonzero;stroke:none;stroke-width:25;stroke-linecap:round;stroke-linejoin:round;marker:none;marker-start:none;marker-mid:none;marker-end:none;stroke-miterlimit:4;stroke-dasharray:none;stroke-dashoffset:0;stroke-opacity:1;visibility:visible;display:inline;overflow:visible;enable-background:accumulate" />
        <path
           d="M 528.21046,645.75264 C 527.24615,639.13667 524.57057,628.08305 522.26467,621.18899 L 518.07211,608.65437 L 527.03397,607.65634 C 531.96294,607.10749 542.56172,604.49772 550.58679,601.85692 L 565.1778,597.0554 L 567.39169,602.3453 C 571.69514,612.62807 575.49427,625.59471 577.16791,635.71211 C 578.68883,644.90607 578.59838,646.14515 576.28295,647.83823 C 572.28389,650.76236 550.44955,656.26287 539.66846,657.0621 L 529.96365,657.78154 L 528.21046,645.75264 z"
           id="path8275"
           style="opacity:1;fill:#2b5595;fill-opacity:1;fill-rule:nonzero;stroke:none;stroke-width:25;stroke-linecap:round;stroke-linejoin:round;marker:none;marker-start:none;marker-mid:none;marker-end:none;stroke-miterlimit:4;stroke-dasharray:none;stroke-dashoffset:0;stroke-opacity:1;visibility:visible;display:inline;overflow:visible;enable-background:accumulate" />
        <path
           d="M 485.45859,652.77406 C 479.736,651.14738 471.2371,648.10673 466.57217,646.01704 C 458.33245,642.32604 458.06461,642.02108 457.18468,635.33106 C 456.00523,626.36364 452.47253,608.28486 451.31497,605.2923 C 450.50419,603.19623 451.54996,603.22392 461.24491,605.55512 C 467.2048,606.98821 475.85324,608.58304 480.46363,609.09916 L 488.84614,610.03761 L 492.62989,618.49788 C 496.89442,628.03339 502.55204,647.46042 502.55204,652.56845 C 502.55204,656.78307 499.68401,656.81759 485.45859,652.77402 L 485.45859,652.77406 z"
           id="path8277"
           style="opacity:1;fill:#2b5595;fill-opacity:1;fill-rule:nonzero;stroke:none;stroke-width:25;stroke-linecap:round;stroke-linejoin:round;marker:none;marker-start:none;marker-mid:none;marker-end:none;stroke-miterlimit:4;stroke-dasharray:none;stroke-dashoffset:0;stroke-opacity:1;visibility:visible;display:inline;overflow:visible;enable-background:accumulate" />
        <path
           d="M 479.51304,732.4568 C 468.91892,730.12151 458.02696,726.52569 449.62818,722.59076 L 443.52548,719.73162 L 448.40107,705.54716 C 451.08255,697.74575 454.07566,686.89114 455.05237,681.42584 L 456.82821,671.4889 L 468.91382,675.50061 C 475.5609,677.70705 485.34711,680.31371 490.66094,681.29318 C 505.23563,683.97963 504.35209,683.27909 503.19709,691.23334 C 500.84325,707.44389 492.04657,735.00181 489.36312,734.57198 C 488.8507,734.48987 484.41812,733.53807 479.51304,732.45682 L 479.51304,732.4568 z"
           id="path8279"
           style="opacity:1;fill:#2b5595;fill-opacity:1;fill-rule:nonzero;stroke:none;stroke-width:25;stroke-linecap:round;stroke-linejoin:round;marker:none;marker-start:none;marker-mid:none;marker-end:none;stroke-miterlimit:4;stroke-dasharray:none;stroke-dashoffset:0;stroke-opacity:1;visibility:visible;display:inline;overflow:visible;enable-background:accumulate" />
        <path
           d="M 409.25893,694.27315 C 403.31964,688.31538 396.15629,680.18403 393.34036,676.20345 L 388.22043,668.96601 L 390.9713,663.56914 C 392.48432,660.60087 395.54763,652.31449 397.7787,645.15496 L 401.83524,632.13764 L 411.89739,641.62979 C 417.43159,646.85051 424.10146,652.37387 426.71931,653.90394 C 431.42697,656.65551 431.46849,656.78031 430.51492,665.32377 C 429.43441,675.00502 425.12817,692.80145 422.07131,700.21894 L 420.05755,705.10534 L 409.25893,694.27315 z"
           id="path8281"
           style="opacity:1;fill:#2b5595;fill-opacity:1;fill-rule:nonzero;stroke:none;stroke-width:25;stroke-linecap:round;stroke-linejoin:round;marker:none;marker-start:none;marker-mid:none;marker-end:none;stroke-miterlimit:4;stroke-dasharray:none;stroke-dashoffset:0;stroke-opacity:1;visibility:visible;display:inline;overflow:visible;enable-background:accumulate" />
        <path
           d="M 322.10885,697.9208 C 318.20622,685.99996 315.31226,671.88575 315.28922,664.66038 C 315.27071,658.85091 315.87915,657.37005 319.17102,655.21314 C 321.31811,653.80633 327.96328,648.39188 333.93813,643.18104 L 344.80148,633.70676 L 347.24598,642.22355 C 348.59046,646.9078 351.42846,654.64791 353.55266,659.42383 C 357.33312,667.9238 357.35973,668.2096 354.80915,672.94574 C 351.53907,679.01801 336.55245,695.71209 329.63459,700.98859 L 324.41627,704.96881 L 322.10885,697.9208 z"
           id="path8283"
           style="opacity:1;fill:#2b5595;fill-opacity:1;fill-rule:nonzero;stroke:none;stroke-width:25;stroke-linecap:round;stroke-linejoin:round;marker:none;marker-start:none;marker-mid:none;marker-end:none;stroke-miterlimit:4;stroke-dasharray:none;stroke-dashoffset:0;stroke-opacity:1;visibility:visible;display:inline;overflow:visible;enable-background:accumulate" />
        <path
           d="M 358.98313,755.29132 C 353.73792,750.2546 346.63989,742.49591 343.20972,738.0498 L 336.97309,729.96594 L 347.30114,720.83224 C 358.98093,710.50319 371.68492,697.40292 371.72394,695.64761 C 371.73827,695.00374 379.44202,702.26223 388.84342,711.77768 C 398.24482,721.29313 405.93457,729.512 405.93174,730.04187 C 405.92898,730.57172 401.87416,735.68738 396.92113,741.40997 C 387.11962,752.73441 373.69401,764.44897 370.51706,764.44897 C 369.41862,764.44897 364.22834,760.32802 358.98313,755.29131 L 358.98313,755.29132 z"
           id="path8285"
           style="opacity:1;fill:#2b5595;fill-opacity:1;fill-rule:nonzero;stroke:none;stroke-width:25;stroke-linecap:round;stroke-linejoin:round;marker:none;marker-start:none;marker-mid:none;marker-end:none;stroke-miterlimit:4;stroke-dasharray:none;stroke-dashoffset:0;stroke-opacity:1;visibility:visible;display:inline;overflow:visible;enable-background:accumulate" />
        <path
           d="M 421.54394,788.84481 C 416.63886,787.68354 408.83252,785.33644 404.1965,783.62907 L 395.7674,780.5248 L 405.90077,770.96553 C 413.78519,763.52768 424.52923,751.02743 429.22104,743.83325 C 429.41816,743.53104 435.12904,745.59562 441.91193,748.42123 C 448.69485,751.24683 458.75936,754.77052 464.27757,756.25166 C 469.79578,757.73276 474.31068,759.40961 474.31068,759.9779 C 474.31068,761.83975 456.94987,778.85728 448.68296,785.09886 C 439.64243,791.92451 436.42681,792.36839 421.54394,788.84484 L 421.54394,788.84481 z"
           id="path8287"
           style="opacity:1;fill:#2b5595;fill-opacity:1;fill-rule:nonzero;stroke:none;stroke-width:25;stroke-linecap:round;stroke-linejoin:round;marker:none;marker-start:none;marker-mid:none;marker-end:none;stroke-miterlimit:4;stroke-dasharray:none;stroke-dashoffset:0;stroke-opacity:1;visibility:visible;display:inline;overflow:visible;enable-background:accumulate" />
        <path
           d="M 290.71827,784.1876 C 282.79682,777.91197 266.21647,760.61089 266.21647,758.62073 C 266.21647,757.96093 269.14923,757.01913 272.73371,756.52782 C 276.31816,756.03646 286.18409,753.2365 294.65792,750.30556 C 303.13173,747.37469 311.0682,744.6942 312.29447,744.34902 C 313.72659,743.94592 317.18226,747.44886 321.95599,754.14278 C 326.04356,759.87452 332.88345,767.90527 337.15574,771.98886 L 344.9236,779.41355 L 340.93701,780.92923 C 332.22791,784.24045 315.67047,788.25935 307.135,789.13383 C 298.31768,790.03717 297.96958,789.93231 290.7183,784.18761 L 290.71827,784.1876 z"
           id="path8289"
           style="opacity:1;fill:#2b5595;fill-opacity:1;fill-rule:nonzero;stroke:none;stroke-width:25;stroke-linecap:round;stroke-linejoin:round;marker:none;marker-start:none;marker-mid:none;marker-end:none;stroke-miterlimit:4;stroke-dasharray:none;stroke-dashoffset:0;stroke-opacity:1;visibility:visible;display:inline;overflow:visible;enable-background:accumulate" />
        <path
           d="M 249.97969,729.80809 C 244.99046,716.6475 242.46758,706.15071 240.39294,689.92087 L 239.70128,684.50975 L 250.6769,682.8773 C 256.7135,681.97952 267.69951,679.30032 275.09026,676.92359 C 282.48102,674.54686 288.78241,673.03432 289.09338,673.56239 C 289.40438,674.09045 290.14999,678.20135 290.75035,682.69767 C 291.35067,687.19399 293.76825,696.78577 296.12265,704.01273 C 298.47703,711.23964 300.40338,717.67884 300.40338,718.32196 C 300.40338,721.29102 273.20873,730.01144 256.85843,732.28536 C 252.03552,732.95614 251.03683,732.59646 249.97972,729.80808 L 249.97969,729.80809 z"
           id="path8291"
           style="opacity:1;fill:#2b5595;fill-opacity:1;fill-rule:nonzero;stroke:none;stroke-width:25;stroke-linecap:round;stroke-linejoin:round;marker:none;marker-start:none;marker-mid:none;marker-end:none;stroke-miterlimit:4;stroke-dasharray:none;stroke-dashoffset:0;stroke-opacity:1;visibility:visible;display:inline;overflow:visible;enable-background:accumulate" />
      </g>
      <path
         d="M 116.72382,697.83086 L 116.72382,604.33086 L 146.22382,604.33086 L 175.72382,604.33086 L 175.72382,697.83086 L 175.72382,791.33086 L 146.22382,791.33086 L 116.72382,791.33086 L 116.72382,697.83086 z M 237.72382,710.33086 L 237.72382,629.33086 L 217.22382,629.33086 L 196.72382,629.33086 L 196.72382,616.83086 L 196.72382,604.33086 L 267.72382,604.33086 L 338.72382,604.33086 L 338.72382,616.83086 L 338.72382,629.33086 L 318.22382,629.33086 L 297.72382,629.33086 L 297.72382,710.33086 L 297.72382,791.33086 L 267.72382,791.33086 L 237.72382,791.33086 L 237.72382,710.33086 z M 362.72382,697.83086 L 362.72382,604.33086 L 412.72382,604.33086 L 462.72382,604.33086 L 462.72382,616.81015 L 462.72382,629.28945 L 442.47382,629.56015 L 422.22382,629.83086 L 421.95825,658.08086 L 421.69267,686.33086 L 440.70825,686.33086 L 459.72382,686.33086 L 459.72382,697.30879 L 459.72382,708.28673 L 440.97382,708.55879 L 422.22382,708.83086 L 421.95872,738.08086 L 421.69361,767.33086 L 443.20872,767.33086 L 464.72382,767.33086 L 464.72382,779.33086 L 464.72382,791.33086 L 413.72382,791.33086 L 362.72382,791.33086 L 362.72382,697.83086 z M 489.72382,697.71091 L 489.72382,604.09097 L 530.97382,604.63225 C 553.66132,604.92995 575.82382,605.6773 580.22382,606.29302 C 610.6142,610.54579 631.0845,621.82852 639.2574,638.83086 C 641.7624,644.04207 642.147,646.01404 642.1827,653.83086 C 642.2188,661.72563 641.8777,663.53568 639.4054,668.57029 C 634.3694,678.82579 623.1496,687.55848 607.4738,693.4234 C 604.3113,694.60662 601.7258,695.85734 601.7281,696.20279 C 601.7305,696.54823 605.0895,698.55427 609.1926,700.66066 C 617.8601,705.11028 629.1539,715.12486 634.6563,723.24014 C 644.4399,737.66968 648.3888,749.17129 657.2617,789.08086 L 657.7619,791.33086 L 627.7429,791.33086 L 597.7238,791.33086 L 597.7238,788.93023 C 597.7238,783.00407 593.3877,762.07929 590.16053,752.43246 C 585.77386,739.31944 581.23066,731.06602 574.28454,723.59131 C 568.81735,717.70807 560.40185,711.97719 555.47382,710.78136 L 552.72382,710.11404 L 552.72382,750.72245 L 552.72382,791.33086 L 521.22382,791.33086 L 489.72382,791.33086 L 489.72382,697.71091 z M 560.1788,684.80057 C 579.97793,679.64355 589.94923,667.3676 586.77167,652.06135 C 584.33586,640.32812 574.99518,633.90338 557.47382,631.90962 L 552.72382,631.36912 L 552.72382,658.84999 C 552.72382,673.96447 553.07928,686.33086 553.51372,686.33086 C 553.94817,686.33086 556.94745,685.64223 560.1788,684.80057 z"
         id="path8433"
         style="fill:#2b5595;fill-opacity:1" />
    </g>
  </g>
</svg>
